<svg width="636" height="247" viewBox="0 0 636 247" fill="none" xmlns="http://www.w3.org/2000/svg">
<path d="M552.956 246.7C503.708 246.7 456.063 246.7 407.73 246.7C407.73 242.348 407.73 238.225 407.73 233.185C440.028 233.185 471.868 233.185 505.311 233.185C505.311 227.917 505.311 224.023 505.311 219.9C505.311 166.07 505.54 112.24 505.082 58.4109C505.082 50.6228 507.373 47.1868 514.702 44.6671C552.04 31.3815 588.919 17.1797 626.027 3.20686C628.776 2.06155 631.753 1.37437 635.418 0C635.418 82.2333 635.418 163.779 635.418 246.013C620.3 246.013 604.953 246.013 588.461 246.013C588.461 175.691 588.461 104.91 588.461 32.5268C577.007 36.6499 566.7 39.6278 557.308 44.4381C554.559 45.8124 552.956 51.9971 552.956 55.8912C552.727 114.989 552.727 174.316 552.727 233.414C552.956 237.538 552.956 241.661 552.956 246.7ZM621.675 21.0737C602.204 25.884 602.204 25.884 602.204 44.6671C602.204 103.307 602.204 162.176 602.204 220.816C602.204 224.71 602.433 228.833 602.662 232.727C609.763 232.727 615.261 232.727 621.675 232.727C621.675 161.718 621.675 91.3958 621.675 21.0737ZM538.525 232.727C538.525 172.255 538.525 112.47 538.525 52.4552C519.513 56.1202 519.513 56.1202 519.513 72.8418C519.513 122.09 519.513 171.109 519.513 220.358C519.513 224.481 519.513 228.375 519.513 232.727C526.614 232.727 532.34 232.727 538.525 232.727Z" fill="#5A7C6C"/>
<path d="M64.891 77.4899C64.2817 76.8806 63.1502 76.0537 61.4963 75.0092C59.9295 73.9647 57.9711 72.9637 55.6209 72.0062C53.3578 71.0487 50.877 70.2218 48.1787 69.5255C45.4803 68.7421 42.7384 68.3504 39.953 68.3504C35.0786 68.3504 31.3792 69.2643 28.855 71.0922C26.4177 72.9202 25.1991 75.4879 25.1991 78.7956C25.1991 81.3199 25.9825 83.3219 27.5493 84.8016C29.1161 86.2814 31.4663 87.5435 34.5998 88.588C37.7334 89.6325 41.6504 90.7641 46.3507 91.9827C52.4438 93.4625 57.7099 95.2904 62.1492 97.4665C66.6754 99.5555 70.1137 102.341 72.4638 105.823C74.9011 109.217 76.1197 113.744 76.1197 119.401C76.1197 124.363 75.2057 128.628 73.3778 132.197C71.5499 135.679 69.0256 138.508 65.805 140.684C62.5844 142.86 58.9285 144.47 54.8375 145.515C50.7464 146.472 46.3943 146.951 41.781 146.951C37.1676 146.951 32.5543 146.472 27.941 145.515C23.3277 144.557 18.8885 143.208 14.6233 141.467C10.3582 139.639 6.44123 137.463 2.87244 134.939L10.8369 119.401C11.6203 120.185 13.013 121.229 15.015 122.535C17.017 123.754 19.4543 125.016 22.3267 126.321C25.1991 127.54 28.3327 128.585 31.7274 129.455C35.1221 130.325 38.5603 130.761 42.0421 130.761C46.9165 130.761 50.6159 129.934 53.1401 128.28C55.6644 126.626 56.9265 124.276 56.9265 121.229C56.9265 118.444 55.9255 116.268 53.9235 114.701C51.9215 113.134 49.1361 111.785 45.5673 110.654C41.9986 109.435 37.7769 108.129 32.9025 106.737C27.0706 105.083 22.1961 103.255 18.2792 101.253C14.3622 99.1638 11.4462 96.5525 9.53128 93.4189C7.61632 90.2854 6.65884 86.3684 6.65884 81.668C6.65884 75.3139 8.13858 70.0042 11.0981 65.7391C14.1446 61.3869 18.2356 58.1227 23.3712 55.9466C28.5068 53.6835 34.2082 52.5519 40.4753 52.5519C44.8275 52.5519 48.9185 53.0307 52.7484 53.9882C56.6654 54.9456 60.3212 56.2078 63.7159 57.7746C67.1106 59.3413 70.1572 61.0387 72.8555 62.8666L64.891 77.4899ZM93.6522 145.906V53.2048H111.67V145.906H93.6522ZM152.946 86.3684V145.906H134.928V53.2048H149.29L197.208 114.309V53.3353H215.226V145.906H200.211L152.946 86.3684ZM302.796 130.108V145.906H238.427V53.2048H301.62V69.0032H256.445V91.3299H295.484V105.953H256.445V130.108H302.796ZM330.291 53.2048L355.359 124.494L380.167 53.2048H399.099L363.977 145.906H346.612L311.359 53.2048H330.291ZM430.587 53.2048H448.866L482.943 145.906H464.403L455.786 122.796H423.405L414.919 145.906H396.378L430.587 53.2048ZM452.522 110.131L439.726 71.8756L426.408 110.131H452.522Z" fill="white"/>
<path d="M51.7101 202.186C51.7101 204.971 50.9771 207.366 49.5111 209.369C48.094 211.373 46.1637 212.912 43.7204 213.987C41.2771 215.062 38.5894 215.6 35.6574 215.6H10.8087V163.557H37.6365C40.0798 163.557 42.1811 164.217 43.9403 165.536C45.7484 166.807 47.1166 168.468 48.0451 170.52C49.0224 172.524 49.5111 174.625 49.5111 176.824C49.5111 179.365 48.8514 181.76 47.532 184.008C46.2615 186.207 44.429 187.844 42.0345 188.919C45.0154 189.798 47.361 191.411 49.0713 193.756C50.8305 196.053 51.7101 198.863 51.7101 202.186ZM43.2806 200.647C43.2806 199.181 42.963 197.861 42.3277 196.688C41.7413 195.467 40.9106 194.489 39.8355 193.756C38.8093 192.975 37.5876 192.584 36.1705 192.584H19.0183V208.49H35.6574C37.1234 208.49 38.4184 208.148 39.5423 207.464C40.7151 206.731 41.6191 205.778 42.2544 204.605C42.9385 203.383 43.2806 202.064 43.2806 200.647ZM19.0183 170.667V185.987H34.1181C35.4864 185.987 36.708 185.669 37.7831 185.034C38.8582 184.35 39.7133 183.446 40.3486 182.322C40.9839 181.149 41.3015 179.829 41.3015 178.363C41.3015 176.849 41.0083 175.529 40.4219 174.405C39.8355 173.233 39.0292 172.328 38.003 171.693C37.0257 171.009 35.8773 170.667 34.5579 170.667H19.0183ZM65.4029 215.6V163.557H88.0525C90.3981 163.557 92.5483 164.046 94.5029 165.023C96.4576 166 98.1435 167.295 99.5606 168.908C101.027 170.52 102.151 172.328 102.932 174.332C103.763 176.336 104.179 178.388 104.179 180.489C104.179 182.786 103.763 184.985 102.932 187.086C102.102 189.187 100.904 190.996 99.3407 192.51C97.8259 194.025 96.0422 195.125 93.9898 195.809L106.231 215.6H96.9951L85.7069 197.495H73.6124V215.6H65.4029ZM73.6124 190.238H87.9792C89.4941 190.238 90.8379 189.798 92.0107 188.919C93.1835 188.039 94.112 186.866 94.7961 185.4C95.4803 183.885 95.8223 182.248 95.8223 180.489C95.8223 178.681 95.4314 177.069 94.6495 175.651C93.8677 174.185 92.8415 173.013 91.5709 172.133C90.3493 171.253 89.0054 170.814 87.5394 170.814H73.6124V190.238ZM140.475 215.966C136.712 215.966 133.316 215.233 130.286 213.767C127.257 212.301 124.642 210.322 122.443 207.83C120.244 205.289 118.534 202.455 117.312 199.327C116.14 196.151 115.553 192.901 115.553 189.578C115.553 186.109 116.188 182.81 117.459 179.683C118.729 176.507 120.489 173.697 122.737 171.253C124.984 168.761 127.623 166.807 130.653 165.389C133.732 163.923 137.054 163.19 140.622 163.19C144.336 163.19 147.707 163.948 150.737 165.463C153.816 166.978 156.43 169.006 158.58 171.547C160.779 174.088 162.465 176.922 163.638 180.049C164.86 183.177 165.47 186.378 165.47 189.652C165.47 193.121 164.835 196.444 163.565 199.62C162.343 202.748 160.608 205.558 158.36 208.05C156.112 210.493 153.449 212.424 150.371 213.841C147.341 215.258 144.042 215.966 140.475 215.966ZM123.909 189.578C123.909 192.022 124.3 194.392 125.082 196.688C125.864 198.985 126.964 201.038 128.381 202.846C129.847 204.605 131.606 205.998 133.658 207.024C135.711 208.05 138.007 208.563 140.548 208.563C143.187 208.563 145.533 208.026 147.585 206.95C149.638 205.875 151.348 204.434 152.716 202.626C154.133 200.769 155.208 198.716 155.941 196.469C156.674 194.172 157.041 191.875 157.041 189.578C157.041 187.135 156.65 184.789 155.868 182.542C155.135 180.245 154.036 178.217 152.57 176.458C151.104 174.65 149.344 173.233 147.292 172.206C145.288 171.18 143.041 170.667 140.548 170.667C137.91 170.667 135.564 171.205 133.512 172.28C131.459 173.355 129.724 174.796 128.307 176.604C126.89 178.412 125.791 180.44 125.009 182.688C124.276 184.936 123.909 187.233 123.909 189.578ZM179.101 215.6V163.63H187.31V190.385L211.793 163.557H220.882L200.358 186.573L222.055 215.6H212.745L195.153 191.777L187.31 199.914V215.6H179.101ZM268.318 208.343V215.6H232.621V163.557H267.659V170.814H240.831V185.62H264.067V192.437H240.831V208.343H268.318ZM281.918 215.6V163.557H304.568C306.913 163.557 309.064 164.046 311.018 165.023C312.973 166 314.659 167.295 316.076 168.908C317.542 170.52 318.666 172.328 319.448 174.332C320.278 176.336 320.694 178.388 320.694 180.489C320.694 182.786 320.278 184.985 319.448 187.086C318.617 189.187 317.42 190.996 315.856 192.51C314.341 194.025 312.558 195.125 310.505 195.809L322.746 215.6H313.51L302.222 197.495H290.128V215.6H281.918ZM290.128 190.238H304.495C306.009 190.238 307.353 189.798 308.526 188.919C309.699 188.039 310.627 186.866 311.311 185.4C311.996 183.885 312.338 182.248 312.338 180.489C312.338 178.681 311.947 177.069 311.165 175.651C310.383 174.185 309.357 173.013 308.086 172.133C306.865 171.253 305.521 170.814 304.055 170.814H290.128V190.238ZM350.537 163.557H358.306L378.537 215.6H369.888L364.39 201.453H344.306L338.882 215.6H330.159L350.537 163.557ZM362.778 195.369L354.422 172.573L345.772 195.369H362.778ZM409.357 215.966C405.936 215.966 402.736 215.258 399.755 213.841C396.774 212.424 394.159 210.469 391.912 207.977C389.713 205.484 387.978 202.65 386.707 199.474C385.486 196.298 384.875 192.926 384.875 189.358C384.875 185.791 385.486 182.444 386.707 179.316C387.978 176.189 389.713 173.404 391.912 170.96C394.159 168.517 396.774 166.611 399.755 165.243C402.784 163.875 406.083 163.19 409.65 163.19C414.586 163.19 418.739 164.241 422.111 166.342C425.532 168.395 428.097 171.131 429.808 174.552L423.504 179.096C422.136 176.262 420.181 174.137 417.64 172.719C415.148 171.302 412.411 170.594 409.43 170.594C406.987 170.594 404.764 171.107 402.76 172.133C400.756 173.159 399.022 174.576 397.556 176.384C396.139 178.144 395.064 180.172 394.331 182.468C393.598 184.716 393.231 187.086 393.231 189.578C393.231 192.217 393.646 194.685 394.477 196.982C395.308 199.278 396.481 201.306 397.996 203.066C399.51 204.776 401.294 206.12 403.346 207.097C405.399 208.074 407.622 208.563 410.017 208.563C412.851 208.563 415.539 207.854 418.08 206.437C420.67 204.971 423.089 202.797 425.336 199.914V208.27C420.792 213.401 415.465 215.966 409.357 215.966ZM424.53 195.369H413.608V189.285H431.42V215.6H424.53V195.369ZM481.612 208.343V215.6H445.915V163.557H480.953V170.814H454.125V185.62H477.361V192.437H454.125V208.343H481.612Z" fill="white"/>
</svg>
